# File produced by Open Asset Import Library (http://www.assimp.sf.net)
# (assimp v5.0.1588609223)

mtllib result.mtl

# 338 vertex positions
v  0.49859732 0.19735897 0.46722367
v  0.49762458 0.20349127 0.4187201
v  0.47992128 0.19735456 0.44977397
v  0.53360915 0.20349127 0.46884021
v  0.50655991 0.20349121 -0.17384732
v  0.5089947 0.19735891 -0.22229952
v  0.48980105 0.1973545 -0.20542094
v  0.54403943 0.20349121 -0.22285971
v  0.52103305 0.19932672 -0.24164757
v  0.49762452 -0.030815102 0.41872016
v  0.49859732 -0.024682783 0.46722373
v  0.47992128 -0.024678402 0.44977403
v  0.51004678 -0.026650615 0.4869259
v  0.54403943 -0.030815154 -0.22285965
v  0.5089947 -0.024682842 -0.22229946
v  0.52103305 -0.026650675 -0.24164751
v  0.51004678 0.19932678 0.48692584
v  0.39488548 0.14878219 1.1204106
v  0.46683806 0.14878213 0.55682695
v  0.46683806 0.023894034 0.55682695
v  0.39488548 0.023894072 1.1204106
v  0.46585178 0.14878203 -0.92097151
v  1.8455458 0.1487821 0.10729426
v  1.8455458 0.02389399 0.10729429
v  0.46585178 0.023893915 -0.92097151
v  -1.087528 0.20349124 0.05860709
v  -1.1094277 0.19891569 0.058276862
v  -1.1106296 0.19891569 0.13797708
v  -1.0887299 0.20349124 0.1383073
v  -1.0803567 0.14878207 -0.42683378
v  0.43313855 0.14878209 -0.24073061
v  0.43313855 0.023893967 -0.24073061
v  -1.0803567 0.02389396 -0.42683378
v  0.47995162 0.14878207 -0.31281966
v  0.42502457 0.14878203 -0.87831652
v  0.42502457 0.023893923 -0.87831652
v  0.47995162 0.023893967 -0.31281966
v  1.8444784 0.1487821 0.17807862
v  0.43440801 0.14878219 1.1642772
v  0.43440801 0.023894079 1.1642772
v  1.8444784 0.023894005 0.17807865
v  -1.0961986 0.14878216 0.62374365
v  -1.096072 0.16971843 0.61762393
v  -1.1174188 0.17024311 0.61231732
v  -1.1170411 0.14878216 0.61964571
v  -1.0957704 0.18746734 0.60028446
v  -1.1160851 0.18468526 0.59815574
v  -1.1316403 0.16915421 0.59965551
v  -1.1345162 0.14878215 0.60402024
v  -1.1272062 0.18036848 0.59292632
v  -1.0948446 0.20349127 0.54381233
v  -1.1157902 0.1993268 0.54579866
v  -1.1168232 0.19430074 0.57716846
v  -1.0953391 0.19932678 0.57436526
v  -1.1335589 0.18746734 0.54750013
v  -1.1312559 0.18468526 0.57696426
v  -1.1496394 0.14878213 0.54909551
v  -1.1459631 0.14878215 0.57924634
v  -1.1409187 0.17024311 0.57949173
v  -1.1454451 0.16971843 0.54865789
v  0.43832546 0.16971847 1.1523077
v  0.41781104 0.17024314 1.162486
v  0.41410273 0.14878219 1.1755652
v  0.44421917 0.18746738 1.1282183
v  0.42371905 0.18468529 1.1419928
v  0.40574998 0.16915426 1.1592457
v  0.39946151 0.14878219 1.1711928
v  0.41294467 0.18036851 1.1455775
v  0.45818251 0.20349132 1.0596356
v  0.43606746 0.19932684 1.0788893
v  0.42826557 0.1943008 1.1164713
v  0.45119214 0.19932684 1.0956762
v  0.41627252 0.18746738 1.0971999
v  0.41249925 0.18468529 1.1295397
v  0.39271325 0.14878219 1.1518248
v  0.40043145 0.17024314 1.1431963
v  0.40181136 0.16971847 1.1117803
v  -1.1440336 0.1487821 0.17733254
v  -1.1398696 0.16971838 0.17739533
v  -1.1388576 0.17068449 0.13755143
v  -1.1434326 0.1487821 0.13748243
v  -1.1280115 0.18746731 0.17757414
v  -1.1274105 0.18746731 0.13772403
v  -1.0893308 0.20349124 0.1781574
v  -1.1102647 0.19932677 0.17784174
v  -1.0869272 0.20349124 0.018756993
v  -1.107861 0.19932675 0.018441327
v  -1.1256078 0.18746729 0.01817371
v  -1.1262087 0.18746731 0.058023818
v  -1.1416299 0.1487821 0.017932124
v  -1.1422307 0.1487821 0.057782218
v  -1.1376557 0.17068446 0.057851207
v  -1.137466 0.16971838 0.01799491
v  1.859749 0.1487821 0.16206713
v  1.8263574 0.17000437 0.17057604
v  1.8055482 0.16971838 0.19860671
v  1.8653142 0.1487821 0.14299259
v  1.8390585 0.16999996 0.14259668
v  1.7894039 0.18745413 0.17802408
v  1.7566789 0.18746731 0.21370679
v  1.8060392 0.18744753 0.14209877
v  1.8072522 0.16971838 0.085601717
v  1.8272067 0.17000434 0.11424708
v  1.8603266 0.1487821 0.12375891
v  1.7588605 0.18746729 0.069035046
v  1.7904948 0.18745412 0.10568822
v  1.661667 0.20349124 0.060203455
v  1.6949524 0.20349124 0.09728045
v  1.7435725 0.19735892 0.10190643
v  1.7077376 0.19932675 0.060116366
v  1.7061838 0.20349124 0.14059305
v  1.7594931 0.19735453 0.14139691
v  1.6592634 0.20349124 0.21960384
v  1.7053103 0.19932677 0.22107999
v  1.742389 0.19735894 0.1803894
v  1.6936516 0.20349124 0.18354732
v  0.42221987 0.14878213 0.48335925
v  0.44236779 0.14878213 0.48740286
v  0.44049269 0.1700044 0.48136538
v  0.41685492 0.16971841 0.47778037
v  0.45792204 0.14878215 0.50278485
v  0.46007001 0.17 0.49180639
v  0.44088364 0.18745416 0.46683073
v  0.41016656 0.18746732 0.46109888
v  0.46610683 0.18744756 0.47580904
v  0.47391051 0.16971841 0.53454399
v  0.47039914 0.1700044 0.51034796
v  0.466515 0.14878215 0.52716327
v  0.48908341 0.18746732 0.5099979
v  0.48034221 0.18745416 0.49128023
v  0.39693964 0.20349127 0.40589029
v  0.40317327 0.19932678 0.43585446
v  0.44567788 0.19735895 0.44087055
v  0.45223451 0.20349127 0.40653166
v  -1.1013134 0.14878206 -0.42336598
v  -1.1019118 0.17024302 -0.41605237
v  -1.0804148 0.16971835 -0.42071286
v  -1.1192517 0.14878207 -0.40827456
v  -1.1165087 0.16915414 -0.40382519
v  -1.1010057 0.18468519 -0.40185705
v  -1.080636 0.18746728 -0.40337232
v  -1.1122795 0.18036839 -0.39696535
v  -1.136024 0.14878207 -0.35383078
v  -1.1318449 0.16971835 -0.35326692
v  -1.1263908 0.17024302 -0.38395023
v  -1.1314403 0.14878207 -0.38385701
v  -1.1199989 0.18746726 -0.35175142
v  -1.1168087 0.1846852 -0.38113272
v  -1.0814134 0.20349121 -0.34689796
v  -1.0809865 0.19932672 -0.37745196
v  -1.1023763 0.19430068 -0.3809016
v  -1.1022897 0.19932672 -0.3495149
v  0.44589609 0.14878203 -0.93286693
v  0.44920838 0.17024298 -0.91968179
v  0.46940655 0.16971831 -0.90888965
v  0.43112963 0.14878203 -0.92893744
v  0.43705517 0.16915409 -0.91680658
v  0.45449579 0.18468514 -0.8990196
v  0.47457129 0.18746723 -0.8846333
v  0.44383436 0.18036836 -0.90292764
v  0.43168706 0.16971833 -0.86948144
v  0.43125504 0.170243 -0.90092468
v  0.42380053 0.14878203 -0.90978205
v  0.44570208 0.18746723 -0.85447168
v  0.4429056 0.18468514 -0.88691044
v  0.48646039 0.20349118 -0.81566083
v  0.48055983 0.19932669 -0.85189581
v  0.45827073 0.19430065 -0.87337279
v  0.4649359 0.19932669 -0.83557248
v  0.42760777 0.16971835 -0.2353161
v  0.45134288 0.17000434 -0.23818678
v  0.45339918 0.14878209 -0.24416491
v  0.42041951 0.18746728 -0.21884394
v  0.45129544 0.1874541 -0.22364697
v  0.47122616 0.16999994 -0.24803266
v  0.46941018 0.14878209 -0.2590709
v  0.47677785 0.18744752 -0.23186067
v  0.40553391 0.20349121 -0.16405919
v  0.460823 0.20349121 -0.16303304
v  0.4553048 0.19735891 -0.19755405
v  0.41266823 0.19932674 -0.19382182
v  0.50077486 0.18746728 -0.26534122
v  0.49147326 0.1874541 -0.24689558
v  0.47873425 0.14878207 -0.28317919
v  0.48210967 0.17000434 -0.26625437
v  0.48634893 0.16971835 -0.29033354
v  1.8055482 0.002957724 0.19860673
v  1.8263574 0.0026717782 0.17057607
v  1.859749 0.023893997 0.16206716
v  1.7566789 -0.014791176 0.21370679
v  1.789404 -0.014777988 0.1780241
v  1.8390585 0.0026761591 0.14259669
v  1.8653142 0.023893997 0.14299262
v  1.8060392 -0.014771432 0.14209878
v  1.6592634 -0.030815117 0.21960387
v  1.6936516 -0.030815125 0.18354732
v  1.742389 -0.024682805 0.1803894
v  1.7053103 -0.026650637 0.22108001
v  1.7061838 -0.030815125 0.14059305
v  1.7594931 -0.024678424 0.14139691
v  1.661667 -0.030815132 0.060203463
v  1.7077376 -0.026650652 0.060116366
v  1.7435725 -0.02468282 0.10190643
v  1.6949524 -0.030815132 0.097280443
v  1.7588605 -0.014791191 0.069035068
v  1.7904947 -0.014778003 0.10568824
v  1.8603266 0.023893997 0.12375893
v  1.8272067 0.0026717633 0.1142471
v  1.8072522 0.002957724 0.085601732
v  0.41410273 0.023894072 1.1755654
v  0.41781104 0.0024331212 1.1624861
v  0.43832546 0.0029577836 1.1523079
v  0.39946151 0.023894072 1.1711928
v  0.4057501 0.0035220012 1.1592458
v  0.42371905 -0.012009054 1.1419929
v  0.44421917 -0.014791131 1.1282184
v  0.41294467 -0.00769227 1.1455777
v  0.40181136 0.0029577762 1.1117804
v  0.40043145 0.0024331138 1.1431965
v  0.39271325 0.023894072 1.151825
v  0.41627252 -0.014791131 1.0972
v  0.41249925 -0.012009054 1.1295398
v  0.45818251 -0.03081505 1.0596358
v  0.45119214 -0.02665057 1.0956763
v  0.42826557 -0.021624528 1.1164715
v  0.43606746 -0.02665057 1.0788894
v  0.42221987 0.023894027 0.48335925
v  0.41685492 0.0029577538 0.4777804
v  0.44049269 0.0026718006 0.48136541
v  0.44236779 0.023894027 0.48740286
v  0.41016656 -0.014791161 0.461099
v  0.44088364 -0.014777966 0.46683082
v  0.46007001 0.0026761889 0.49180639
v  0.45792204 0.023894027 0.50278485
v  0.46610683 -0.014771402 0.4758091
v  0.39693952 -0.030815102 0.40589038
v  0.45223445 -0.030815102 0.40653172
v  0.44567788 -0.02468279 0.44087061
v  0.40317327 -0.026650622 0.43585458
v  0.48908341 -0.014791161 0.50999796
v  0.48034221 -0.014777966 0.49128029
v  0.466515 0.023894027 0.52716327
v  0.47039914 0.0026718006 0.51034796
v  0.47391051 0.0029577538 0.53454399
v  -1.0961986 0.023894042 0.62374365
v  -1.1170411 0.023894027 0.61964571
v  -1.1174188 0.0024330765 0.61231732
v  -1.096072 0.0029577389 0.61762393
v  -1.1345162 0.023894027 0.60402024
v  -1.1316403 0.0035219565 0.59965551
v  -1.1160851 -0.012009092 0.59815586
v  -1.0957704 -0.014791168 0.60028452
v  -1.1272062 -0.0076923072 0.59292638
v  -1.1496394 0.023894034 0.54909551
v  -1.1454451 0.0029577389 0.54865789
v  -1.1409187 0.0024330765 0.57949167
v  -1.1459631 0.023894027 0.57924628
v  -1.1335589 -0.014791168 0.54750025
v  -1.1312559 -0.012009099 0.57696438
v  -1.0948446 -0.030815087 0.54381239
v  -1.0953391 -0.026650615 0.57436538
v  -1.1168232 -0.021624573 0.57716858
v  -1.1157902 -0.026650608 0.54579872
v  -1.1440336 0.023894005 0.17733255
v  -1.1434326 0.023894005 0.13748245
v  -1.1388576 0.0019916818 0.13755143
v  -1.1398696 0.0029577315 0.17739534
v  -1.1274105 -0.014791176 0.13772404
v  -1.1280115 -0.014791176 0.17757416
v  -1.1416299 0.02389399 0.017932139
v  -1.137466 0.0029577166 0.017994925
v  -1.1376557 0.0019916669 0.057851221
v  -1.1422307 0.023894005 0.057782244
v  -1.1256078 -0.014791191 0.018173739
v  -1.1262087 -0.014791191 0.058023833
v  -1.0869272 -0.030815132 0.018757023
v  -1.087528 -0.030815132 0.058607105
v  -1.1094277 -0.026239581 0.058276877
v  -1.107861 -0.026650652 0.018441342
v  -1.0893308 -0.030815117 0.17815742
v  -1.1102647 -0.026650637 0.17784177
v  -1.1106296 -0.026239567 0.13797709
v  -1.0887297 -0.030815117 0.13830732
v  0.46940655 0.0029576197 -0.90888941
v  0.44920838 0.0024329573 -0.91968167
v  0.44589609 0.023893908 -0.93286681
v  0.47457129 -0.01479128 -0.88463318
v  0.45449579 -0.012009203 -0.89901948
v  0.43705511 0.0035218373 -0.91680646
v  0.43112963 0.023893908 -0.92893744
v  0.44383436 -0.007692419 -0.90292752
v  0.48646039 -0.030815192 -0.81566072
v  0.4649359 -0.026650719 -0.83557236
v  0.45827073 -0.021624677 -0.87337255
v  0.48055983 -0.026650719 -0.85189569
v  0.44570208 -0.01479128 -0.85447156
v  0.4429056 -0.012009203 -0.88691032
v  0.42380053 0.023893908 -0.90978193
v  0.43125504 0.0024329647 -0.90092456
v  0.43168706 0.0029576272 -0.86948133
v  0.45339918 0.023893967 -0.24416491
v  0.45134288 0.0026717409 -0.23818675
v  0.42760777 0.0029576942 -0.23531607
v  0.46941018 0.023893967 -0.2590709
v  0.47122616 0.0026761293 -0.24803266
v  0.45129544 -0.014778025 -0.22364688
v  0.42041951 -0.014791206 -0.21884382
v  0.47677785 -0.014771461 -0.23186061
v  0.48634893 0.0029576942 -0.29033354
v  0.48210967 0.0026717484 -0.2662544
v  0.47873425 0.023893967 -0.28317919
v  0.50077486 -0.014791206 -0.26534119
v  0.49147326 -0.014778025 -0.24689552
v  0.48980105 -0.024678446 -0.20542088
v  0.40553397 -0.030815147 -0.1640591
v  0.41266823 -0.026650667 -0.1938217
v  0.4553048 -0.024682835 -0.19755399
v  0.46082306 -0.030815147 -0.16303298
v  0.50656003 -0.030815147 -0.17384726
v  -1.0804148 0.0029576644 -0.42071286
v  -1.1019118 0.002433002 -0.41605237
v  -1.1013134 0.023893952 -0.42336598
v  -1.080636 -0.014791243 -0.40337226
v  -1.1010057 -0.012009166 -0.40185705
v  -1.1165087 0.003521882 -0.40382519
v  -1.1192517 0.023893952 -0.40827456
v  -1.1122795 -0.0076923817 -0.39696535
v  -1.0814134 -0.030815162 -0.3468979
v  -1.1022897 -0.026650682 -0.34951487
v  -1.1023763 -0.021624632 -0.38090155
v  -1.0809865 -0.026650675 -0.3774519
v  -1.1199989 -0.014791243 -0.35175136
v  -1.1168087 -0.012009159 -0.38113266
v  -1.136024 0.02389396 -0.35383078
v  -1.1314403 0.023893952 -0.38385704
v  -1.1263908 0.002433002 -0.38395026
v  -1.1318449 0.0029576644 -0.35326692
v  0.45793808 -0.030815117 0.20148891

# 163 UV coordinates
vt 0.53903234 0.068231225 0
vt 0.5 0.055745006 0
vt 0.5 0.031729281 0
vt 0.59027559 0.134188 0
vt 0.5 0.055745125 0
vt 0.56284058 0.077882528 0
vt 0.56284058 0.077882469 0
vt 0.94551945 0 0
vt 0.55448043 0 0
vt 0.55448043 5.9604645e-08 0
vt 0.94551951 0 0
vt 1.0000001 0.016415358 0
vt 1 0.48358464 0
vt 1 0.48358458 0
vt 1 0.016415298 0
vt 0.017767016 0.46133393 0
vt 0.010609252 0.4615854 0
vt 0.010609252 0.46158534 0
vt 0.016785208 0 0
vt 0.4832148 0 0
vt 1 0.016415417 0
vt 0.016785206 1.1920929e-07 0
vt 0.016890664 0 0
vt 0.010412781 0 0
vt 0.010448432 5.9604645e-08 0
vt 0.017172158 0 0
vt 0.010975594 0 0
vt 0 0 0
vt 0.0025425158 0.011364222 0
vt 0.017176889 0.076851487 0
vt 0.010643122 0.076336086 0
vt 0.010419785 0.046616018 0
vt 0.017079422 0.0476861 0
vt 0 0.076753736 0
vt 0 0.049057245 0
vt 0.017172197 0 0
vt 0 0.075024247 0
vt 0 0.046701014 0
vt 0 0.046541572 0
vt 0 0.075495541 0
vt 1 0.018519878 0
vt 1 0.012087643 0
vt 1.0000001 0.0099425912 0
vt 1 0.022217393 0
vt 1 0.015474677 0
vt 1 0 0
vt 0.98644769 0.004083395 0
vt 0.93772632 0.02830869 0
vt 0.93926239 0.018871844 0
vt 0.96277893 0.016153812 0
vt 0.96013248 0.025189877 0
vt 0.92626369 0 0
vt 0.9486416 0 0
vt 0.96700168 0 0
vt 0.95988321 -1.1920929e-07 0
vt 0.93853515 0 0
vt 0.92626363 0 0
vt 0 0.42497575 0
vt 0 0.42497581 0
vt 0 0.46248788 0
vt 0 0.46248794 0
vt 0.017632691 0.42319161 0
vt 0.010848928 0.4237054 0
vt 0.017632689 0.42319167 0
vt 0.010848927 0.42370546 0
vt 1 0.48910975 0
vt 0.99999994 0.47934413 0
vt 1.0000001 0.47127205 0
vt 1 0.5 0
vt 1 0.46870875 0
vt 1 0.45674849 0
vt 0.99275678 0.48817146 0
vt 1 0.47127205 0
vt 1 0.46870887 0
vt 0.9588148 0.46198058 0
vt 0.9534747 0.47926807 0
vt 0.96782786 0.48124015 0
vt 0.97451431 0.4619171 0
vt 0.938146 0.5 0
vt 0.95570004 0.5 0
vt 0.95881474 0.46198064 0
vt 0.9678278 0.48124015 0
vt 0.95347476 0.47926807 0
vt 0.4832148 5.9604645e-08 0
vt 0.48933947 0 0
vt 0.48883113 5.9604645e-08 0
vt 0.48163301 0 0
vt 0.5 0 0
vt 0.48910934 0 0
vt 0.47976717 0 0
vt 0.49922377 0.0027107596 0
vt 0.5382964 0 0
vt 0.52263707 5.9604645e-08 0
vt 0.53460157 0 0
vt 0.51920593 0 0
vt 0.50812274 0 0
vt 0.48182505 0.10687584 0
vt 0.48124662 0.065725803 0
vt 0.49370643 0.054298818 0
vt 0.49867055 0.10067004 0
vt 0.5 0.055745065 0
vt 0.010975658 0 0
vt 0.017172201 0 0
vt 0.0025425255 0.011364222 0
vt 0 0.075024188 0
vt 0 0.075495481 0
vt 0 0.046541631 0
vt 0 0.046700954 0
vt 0.017079422 0.04768616 0
vt 0.010419786 0.046616018 0
vt 0.010643121 0.076336145 0
vt 0.017172217 0 0
vt 0.99999994 0.0099426508 0
vt 0.99999994 0.012087643 0
vt 0.98644769 0.0040834546 0
vt 0.93853521 1.1920929e-07 0
vt 0.95988315 0 0
vt 0.9670018 0 0
vt 0.94864154 0 0
vt 0.93772644 0.02830863 0
vt 0.96013266 0.025189817 0
vt 0.96277916 0.016153693 0
vt 0.93926251 0.018871844 0
vt 0.92626375 0 0
vt 0.48883116 0 0
vt 0.48933941 5.9604645e-08 0
vt 0.4797672 0 0
vt 0.4891094 0 0
vt 0.48182499 0.10687584 0
vt 0.49867055 0.10066998 0
vt 0.48124662 0.065725684 0
vt 0.50812268 0 0
vt 0.53829634 1.1920929e-07 0
vt 1 0.47127211 0
vt 1 0.47934413 0
vt 1 0.48910969 0
vt 0.97451437 0.46191704 0
vt 1 0.0099426508 0
vt 0.99999994 0.012087584 0
vt 1 0.018519819 0
vt 0.93853521 0 0
vt 0.95988321 0 0
vt 0.52263713 0 0
vt 0.53829634 0 0
vt 0.010448432 0 0
vt 0.016890664 5.9604645e-08 0
vt 0 0.046541691 0
vt 0 0.42497587 0
vt 0.010609247 0.46158534 0
vt 0.010609247 0.4615854 0
vt 0.017767023 0.46133393 0
vt 1 0.012087584 0
vt 1 0.0099427104 0
vt 0.96700174 -1.1920929e-07 0
vt 0.95988303 0 0
vt 0.93853515 5.9604645e-08 0
vt 0.48933941 0 0
vt 0.48163304 0 0
vt 0.52263707 0 0
vt 0 0.075024128 0
vt 0.017172176 0 0
vt 0.01717221 0 0
vt 0.53276938 0.41034722 0

# 338 vertex normals
vn -0.21733344 0.96649283 0.1365937
vn -0.047090173 0.9960686 0.075033188
vn -0.11615481 0.97220302 0.20329635
vn -0.092294276 0.9955231 0.020384675
vn -0.04480622 0.99606866 -0.076419026
vn -0.21311627 0.96649283 -0.14308459
vn -0.10997231 0.97220302 -0.20670611
vn -0.091637596 0.9955231 -0.023158392
vn -0.27829057 0.95997989 -0.031512506
vn -0.032558091 -0.99822372 0.049893904
vn -0.29854241 -0.94171077 0.15509151
vn -0.11615445 -0.97220308 0.20329639
vn -0.21155386 -0.97637492 0.044012439
vn -0.087825321 -0.9958694 -0.023042776
vn -0.21293899 -0.96653217 -0.14308235
vn -0.27829027 -0.95997995 -0.031512447
vn -0.27911407 0.95997989 0.023107259
vn -0.9859848 0.14033924 -0.090216219
vn -0.98948795 0.12811224 -0.067088127
vn -0.98948795 -0.12811248 -0.067088149
vn -0.98598474 -0.14033967 -0.090216264
vn 0.53662419 0.18365222 -0.82359368
vn 0.67424053 0.32042646 -0.66537708
vn 0.67424077 -0.32042736 -0.66537642
vn 0.5366236 -0.18365543 -0.82359326
vn -0.10162426 0.99482256 -0.00087135116
vn -0.39078188 0.92046458 -0.0058822799
vn -0.39078158 0.92046452 -0.0059031565
vn -0.10160422 0.99482256 -0.0021931808
vn -0.02511926 0.14447911 -0.98918903
vn -0.027469162 0.13028367 -0.9910962
vn -0.027469076 -0.13028468 -0.9910962
vn -0.025119253 -0.14447932 -0.98918903
vn -0.99106091 0.12811236 0.03722316
vn -0.98825657 0.14033943 0.060446426
vn -0.98825657 -0.14033943 0.060446203
vn -0.99106091 -0.12811224 0.037223257
vn 0.65387154 0.32042649 0.6854043
vn 0.51154691 0.18365383 0.83939928
vn 0.51154757 -0.18365175 0.8393994
vn 0.65387195 -0.32042715 0.68540353
vn -0.054933727 0.14448009 0.98798174
vn -0.05496018 0.49743879 0.86575639
vn -0.40802172 0.47445369 0.78000778
vn -0.43629777 0.13777679 0.88919169
vn -0.054984335 0.81444323 0.57763231
vn -0.34206614 0.76854068 0.54068118
vn -0.73596072 0.39932859 0.54671615
vn -0.79584676 0.1138893 0.59469104
vn -0.61607265 0.65420878 0.43870875
vn -0.094399676 0.99321133 0.067971312
vn -0.37700599 0.92406297 0.06304165
vn -0.35934585 0.8941139 0.26726583
vn -0.077271618 0.95805818 0.27595958
vn -0.70308852 0.70905656 0.053901091
vn -0.67630547 0.6982618 0.23460916
vn -0.99320972 0.10220638 0.055575006
vn -0.95645338 0.1057784 0.27204412
vn -0.88226479 0.38959831 0.26423889
vn -0.92127836 0.38495961 0.055248406
vn 0.44007871 0.53179365 0.72355115
vn 0.082400173 0.64843315 0.75679898
vn 0.081652552 0.24993682 0.96481323
vn 0.28218132 0.81977051 0.49834728
vn 0.0036324773 0.87833101 0.47803929
vn -0.53994906 0.64900476 0.53595513
vn -0.65756971 0.2593959 0.70733011
vn -0.41006267 0.82997209 0.37814671
vn -0.055309616 0.99724257 0.049479898
vn -0.33937514 0.9405598 0.013113659
vn -0.20483777 0.95773053 0.20197479
vn 0.078460909 0.9677847 0.23924218
vn -0.67627126 0.73515356 -0.046973232
vn -0.58103013 0.80471355 0.12181948
vn -0.96934432 0.19411065 0.15064079
vn -0.83378869 0.53859782 0.12128036
vn -0.89655656 0.43557844 -0.080360286
vn -0.99492705 0.099374086 -0.015656093
vn -0.92341673 0.38354495 -0.01395557
vn -0.92035937 0.39082721 -0.013889419
vn -0.99469942 0.10162605 -0.015660275
vn -0.70703769 0.70711398 -0.009360319
vn -0.70704466 0.70710659 -0.0093872538
vn -0.099243373 0.99506092 -0.0021558651
vn -0.38339564 0.92356586 -0.0058229421
vn -0.099263392 0.99506092 -0.00083743263
vn -0.38339707 0.92356586 -0.0057396702
vn -0.70699841 0.70711404 -0.011962349
vn -0.70700622 0.70710671 -0.011935698
vn -0.99494666 0.099374086 -0.014349068
vn -0.99471939 0.10162603 -0.01433803
vn -0.92035973 0.39082721 -0.013866437
vn -0.92341763 0.38354519 -0.013892458
vn 0.80587256 0.39246154 0.44333217
vn 0.52440989 0.78263742 0.33537
vn 0.52327102 0.59785771 0.60725087
vn 0.90901995 0.41652718 0.013707384
vn 0.55074668 0.83463126 0.0083052367
vn 0.34219655 0.91037756 0.23262468
vn 0.34789971 0.84059805 0.41516352
vn 0.37205225 0.92819494 0.0056107086
vn 0.5413425 0.59785694 -0.59119827
vn 0.53428346 0.78263736 -0.31940582
vn 0.81887388 0.39246151 -0.41883141
vn 0.36025906 0.84059817 -0.40448511
vn 0.34905517 0.9103772 -0.22220203
vn 0.051828757 0.99689424 -0.059294585
vn 0.0661925 0.99717385 -0.035537537
vn 0.17921688 0.97825986 -0.10435101
vn 0.19389436 0.9567858 -0.21671608
vn 0.070911877 0.99748212 0.0010691748
vn 0.1767699 0.98424858 0.0026655023
vn 0.05001745 0.99689418 0.060830425
vn 0.18727183 0.95678592 0.2224635
vn 0.17598906 0.97825974 0.10970708
vn 0.06509088 0.99717391 0.037516996
vn -0.057339527 0.13028499 0.98981726
vn -0.43821821 0.14766231 0.88665712
vn -0.29288822 0.48825979 0.82208204
vn -0.036711738 0.48602635 0.87317276
vn -0.81438679 0.18435453 0.55026138
vn -0.59024161 0.54725587 0.59340197
vn -0.138657 0.8227616 0.55121469
vn -0.0079814643 0.82289732 0.56813419
vn -0.29165411 0.85922658 0.42031842
vn -0.8840304 0.46742374 -0.0023017169
vn -0.7787317 0.55917132 0.28443721
vn -0.9700219 0.17107932 0.17259592
vn -0.59379703 0.8028971 0.052549962
vn -0.45796072 0.85118002 0.25644621
vn 0.0058679325 0.99732023 0.072924085
vn 0.010598733 0.96248364 0.27113274
vn -0.040154047 0.96514213 0.2586281
vn -0.0089712683 0.99658877 0.082039014
vn -0.4092893 0.1377773 -0.90194231
vn -0.38431868 0.4744544 -0.79195482
vn -0.02883124 0.49743816 -0.86702019
vn -0.77755564 0.11388977 -0.61841452
vn -0.71914208 0.39932817 -0.56865782
vn -0.3256084 0.76854038 -0.55074936
vn -0.037543181 0.81444359 -0.57902694
vn -0.60256469 0.65420812 -0.45708609
vn -0.99108225 0.10220633 -0.085497722
vn -0.91919351 0.38495973 -0.083002105
vn -0.87389612 0.38959774 -0.29072174
vn -0.94781613 0.10577773 -0.30075878
vn -0.70114356 0.70905674 -0.075075276
vn -0.66892368 0.69826216 -0.25489432
vn -0.092307612 0.99321121 -0.070786841
vn -0.068916485 0.95805824 -0.2781637
vn -0.35112402 0.8941139 -0.27797875
vn -0.37493417 0.92406279 -0.07438001
vn 0.11070508 0.24993385 -0.96191359
vn 0.10518108 0.64843178 -0.7539717
vn 0.46169528 0.53179359 -0.70995283
vn -0.63594472 0.25939479 -0.72683471
vn -0.52354378 0.6490038 -0.55199289
vn 0.018043317 0.87833101 -0.47771236
vn 0.29707906 0.81977063 -0.48961222
vn -0.39847684 0.8299706 -0.39033967
vn -0.89857173 0.43557897 0.053291179
vn -0.82975298 0.53859717 -0.1463664
vn -0.96436143 0.19411165 -0.17979947
vn -0.67737925 0.73515433 0.026561167
vn -0.5770939 0.80471271 -0.13928437
vn -0.053792585 0.99724251 -0.051124901
vn 0.085638538 0.96778458 -0.2367679
vn -0.19865361 0.95773065 -0.20805973
vn -0.33882546 0.94055974 -0.023340438
vn -0.01036738 0.48602515 -0.87388343
vn -0.26796758 0.48825869 -0.83054006
vn -0.41128457 0.14766157 -0.89946711
vn 0.0091526769 0.82289708 -0.56811684
vn -0.1219734 0.82276124 -0.55514532
vn -0.57208079 0.54725552 -0.61092967
vn -0.79742485 0.18435471 -0.57456672
vn -0.27884835 0.85922629 -0.42892161
vn 0.0080640288 0.99732035 -0.072713926
vn -0.0064935181 0.99658877 -0.082272269
vn -0.032337476 0.96514207 -0.2597211
vn 0.018769117 0.96248358 -0.27068982
vn -0.59194285 0.80289692 -0.070430078
vn -0.45002091 0.8511796 -0.27013803
vn -0.96437681 0.17107946 -0.20176513
vn -0.76980138 0.55917114 -0.30778825
vn -0.88369787 0.46742377 -0.024354212
vn 0.52327162 -0.5978573 0.60725087
vn 0.52441019 -0.78263772 0.33536887
vn 0.80587262 -0.39246187 0.44333169
vn 0.34789935 -0.84059858 0.41516301
vn 0.342197 -0.91037732 0.23262507
vn 0.55074656 -0.8346312 0.0083043296
vn 0.90901989 -0.41652727 0.013707099
vn 0.37205237 -0.92819488 0.0056097182
vn 0.049505088 -0.99692249 0.060784984
vn 0.06509082 -0.99717385 0.037517291
vn 0.17598905 -0.97825986 0.10970736
vn 0.18727225 -0.95678574 0.22246422
vn 0.070911728 -0.99748212 0.0010694324
vn 0.17676994 -0.98424864 0.002665566
vn 0.051828705 -0.99689412 -0.059294518
vn 0.1938944 -0.95678598 -0.21671595
vn 0.17921704 -0.97825974 -0.10435108
vn 0.066192418 -0.99717385 -0.035537351
vn 0.36025935 -0.84059805 -0.40448499
vn 0.34905493 -0.91037756 -0.22220139
vn 0.81887382 -0.39246154 -0.41883138
vn 0.53428316 -0.78263754 -0.31940591
vn 0.54134178 -0.5978598 -0.59119612
vn 0.081651568 -0.24993308 0.96481431
vn 0.08239986 -0.64843088 0.75680107
vn 0.44007942 -0.53179264 0.72355139
vn -0.65757036 -0.25939411 0.70733011
vn -0.5399493 -0.64900303 0.53595716
vn 0.0036325993 -0.87833107 0.47803926
vn 0.28218117 -0.81977087 0.49834689
vn -0.41006449 -0.8299709 0.37814739
vn -0.8965562 -0.43557927 -0.080360077
vn -0.83378893 -0.53859705 0.12128177
vn -0.96934408 -0.1941117 0.1506415
vn -0.67627013 -0.73515451 -0.046973094
vn -0.58103013 -0.80471349 0.12182039
vn 0.02026812 -0.99791598 0.061262596
vn 0.078461073 -0.96778452 0.23924273
vn -0.20483643 -0.95773071 0.20197494
vn -0.31739408 -0.94815511 0.016215499
vn -0.057339549 -0.13028355 0.98981738
vn -0.036711365 -0.48602554 0.8731733
vn -0.29288787 -0.4882586 0.82208288
vn -0.43821806 -0.14766113 0.8866573
vn -0.0079809874 -0.82289696 0.56813455
vn -0.13865665 -0.82276142 0.55121493
vn -0.59024143 -0.54725552 0.5934025
vn -0.81438667 -0.18435435 0.55026162
vn -0.29165408 -0.85922647 0.42031893
vn 0.0058679641 -0.99732035 0.072924025
vn -0.0089713195 -0.99658877 0.082038954
vn -0.04015414 -0.96514207 0.25862795
vn 0.010598903 -0.96248358 0.27113277
vn -0.59379733 -0.8028968 0.052549917
vn -0.45796102 -0.85117978 0.25644651
vn -0.97002202 -0.17107926 0.17259586
vn -0.77873176 -0.55917102 0.28443736
vn -0.88403034 -0.46742383 -0.0023017724
vn -0.054933615 -0.14447956 0.98798186
vn -0.43629834 -0.13777645 0.88919145
vn -0.40802264 -0.47445408 0.78000695
vn -0.054960184 -0.49743867 0.86575645
vn -0.79584676 -0.11388889 0.59469098
vn -0.7359609 -0.39932799 0.54671639
vn -0.34206587 -0.76854092 0.54068112
vn -0.054984454 -0.81444353 0.57763189
vn -0.61607242 -0.65420824 0.43870991
vn -0.99320972 -0.10220637 0.055575386
vn -0.9212783 -0.38495982 0.055248681
vn -0.88226449 -0.38959783 0.26423997
vn -0.95645308 -0.10577809 0.27204543
vn -0.70308834 -0.70905685 0.053900186
vn -0.67630529 -0.69826192 0.23460913
vn -0.094399951 -0.99321133 0.067971274
vn -0.077271655 -0.9580583 0.27595919
vn -0.35934559 -0.89411408 0.26726535
vn -0.37700617 -0.92406297 0.063040823
vn -0.99492699 -0.099374138 -0.015656767
vn -0.99469948 -0.1016262 -0.015660949
vn -0.92035937 -0.39082706 -0.013890021
vn -0.92341673 -0.38354525 -0.013956215
vn -0.70704496 -0.70710641 -0.0093870051
vn -0.70703763 -0.70711398 -0.0093601029
vn -0.99494666 -0.099374138 -0.014349242
vn -0.92341769 -0.38354516 -0.013892556
vn -0.92035973 -0.39082706 -0.013866509
vn -0.99471939 -0.10162617 -0.014338198
vn -0.70699841 -0.70711404 -0.01196216
vn -0.70700639 -0.70710647 -0.011935446
vn -0.099263392 -0.99506092 -0.00083744625
vn -0.10162415 -0.99482256 -0.00087126286
vn -0.39078179 -0.92046458 -0.0058821063
vn -0.38339698 -0.92356586 -0.00573966
vn -0.099243507 -0.99506092 -0.0021560143
vn -0.38339573 -0.92356586 -0.0058230148
vn -0.3907814 -0.92046458 -0.0059030913
vn -0.10160396 -0.9948225 -0.0021932218
vn 0.4616954 -0.53179461 -0.70995212
vn 0.10518252 -0.64843464 -0.75396895
vn 0.11070612 -0.24993813 -0.96191227
vn 0.29707909 -0.81977069 -0.4896121
vn 0.018045546 -0.87833083 -0.47771254
vn -0.52354443 -0.64900535 -0.55199033
vn -0.63594437 -0.25939614 -0.72683454
vn -0.3984746 -0.82997257 -0.39033753
vn -0.053792406 -0.99724251 -0.051124942
vn -0.3388257 -0.94055969 -0.023340512
vn -0.19865422 -0.95773083 -0.20805852
vn 0.085638039 -0.9677847 -0.23676777
vn -0.67737931 -0.73515433 0.026561223
vn -0.57709318 -0.80471337 -0.13928336
vn -0.96436191 -0.19411008 -0.17979878
vn -0.82975316 -0.53859729 -0.14636497
vn -0.89857197 -0.43557835 0.053291243
vn -0.41128471 -0.1476627 -0.89946693
vn -0.26796776 -0.48825988 -0.83053935
vn -0.01036738 -0.48602626 -0.87388277
vn -0.79742497 -0.18435498 -0.57456648
vn -0.57208109 -0.54725605 -0.61092901
vn -0.12197413 -0.8227616 -0.55514491
vn 0.0091524003 -0.82289755 -0.56811625
vn -0.2788485 -0.85922652 -0.42892128
vn -0.88369787 -0.46742398 -0.024353934
vn -0.76980156 -0.55917108 -0.30778784
vn -0.96437687 -0.17107952 -0.20176487
vn -0.59194297 -0.8028968 -0.070429973
vn -0.45002058 -0.85117984 -0.27013811
vn -0.1209699 -0.9708131 -0.20709522
vn 0.0080640437 -0.99732029 -0.072714023
vn 0.018769 -0.9624837 -0.27068985
vn -0.03233796 -0.96514213 -0.25972104
vn -0.0064936071 -0.99658877 -0.082272142
vn -0.046488333 -0.99598664 -0.076482885
vn -0.028831277 -0.49743912 -0.86701983
vn -0.38431826 -0.47445488 -0.79195464
vn -0.409289 -0.13777742 -0.90194237
vn -0.03754276 -0.8144443 -0.57902592
vn -0.32560778 -0.76854104 -0.55074894
vn -0.71914178 -0.39932874 -0.56865782
vn -0.77755547 -0.11389004 -0.6184147
vn -0.60256433 -0.65420836 -0.45708615
vn -0.092307605 -0.99321121 -0.070786782
vn -0.3749339 -0.92406285 -0.074379951
vn -0.35112324 -0.89411432 -0.27797875
vn -0.068915904 -0.95805836 -0.27816358
vn -0.70114332 -0.70905685 -0.075075366
vn -0.66892338 -0.69826239 -0.2548945
vn -0.99108237 -0.10220639 -0.085496642
vn -0.94781643 -0.10577796 -0.30075747
vn -0.8738963 -0.38959819 -0.29072073
vn -0.91919357 -0.38495982 -0.083001085
vn -0.0025724664 -0.99999666 -0.00023658259

# Mesh 'Arrow_Material.001_0' with 672 faces
g Arrow_Material.001_0
usemtl Material.001
f  1/1/1 2/2/2 3/3/3
f  2/2/2 1/1/1 4/4/4
f  5/5/5 6/1/6 7/3/7
f  8/4/8 9/6/9 6/1/6
f  10/5/10 11/1/11 12/3/12
f  11/1/11 10/5/10 13/6/13
f  14/4/14 15/1/15 16/7/16
f  4/4/4 1/1/1 17/7/17
f  6/1/6 5/5/5 8/4/8
f  18/8/18 19/9/19 20/10/20
f  18/8/18 20/10/20 21/11/21
f  22/12/22 23/13/23 24/14/24
f  22/12/22 24/14/24 25/15/25
f  26/16/26 27/17/27 28/18/28
f  26/16/26 28/18/28 29/16/29
f  30/19/30 31/20/31 32/20/32
f  30/19/30 32/20/32 33/19/33
f  34/9/34 35/11/35 36/11/36
f  34/9/34 36/11/36 37/9/37
f  38/13/38 39/21/39 40/21/40
f  38/13/38 40/21/40 41/14/41
f  42/22/42 43/23/43 44/24/44
f  42/22/42 44/24/44 45/25/45
f  43/23/43 46/26/46 47/27/47
f  43/23/43 47/27/47 44/24/44
f  45/25/45 44/24/44 48/28/48
f  45/25/45 48/28/48 49/28/49
f  44/24/44 47/27/47 50/29/50
f  44/24/44 50/29/50 48/28/48
f  51/30/51 52/31/52 53/32/53
f  51/30/51 53/32/53 54/33/54
f  52/31/52 55/34/55 56/35/56
f  52/31/52 56/35/56 53/32/53
f  54/33/54 53/32/53 47/27/47
f  54/33/54 47/27/47 46/36/46
f  53/32/53 56/35/56 50/29/50
f  53/32/53 50/29/50 47/27/47
f  57/37/57 58/38/58 59/39/59
f  57/37/57 59/39/59 60/40/60
f  58/38/58 49/28/49 48/28/48
f  58/38/58 48/28/48 59/39/59
f  60/40/60 59/39/59 56/35/56
f  60/40/60 56/35/56 55/34/55
f  59/39/59 48/28/48 50/29/50
f  59/39/59 50/29/50 56/35/56
f  39/21/39 61/41/61 62/42/62
f  39/21/39 62/42/62 63/43/63
f  61/41/61 64/44/64 65/45/65
f  61/41/61 65/45/65 62/42/62
f  63/43/63 62/42/62 66/46/66
f  63/43/63 66/46/66 67/46/67
f  62/42/62 65/45/65 68/47/68
f  62/42/62 68/47/68 66/46/66
f  69/48/69 70/49/70 71/50/71
f  69/48/69 71/50/71 72/51/72
f  70/49/70 73/52/73 74/53/74
f  70/49/70 74/53/74 71/50/71
f  72/51/72 71/50/71 65/45/65
f  72/51/72 65/45/65 64/44/64
f  71/50/71 74/53/74 68/47/68
f  71/50/71 68/47/68 65/45/65
f  18/8/18 75/54/75 76/55/76
f  18/8/18 76/55/76 77/56/77
f  75/54/75 67/46/67 66/46/66
f  75/54/75 66/46/66 76/55/76
f  77/56/77 76/55/76 74/53/74
f  77/56/77 74/53/74 73/57/73
f  76/55/76 66/46/66 68/47/68
f  76/55/76 68/47/68 74/53/74
f  78/58/78 79/59/79 80/60/80
f  78/58/78 80/60/80 81/61/81
f  79/59/79 82/59/82 83/61/83
f  79/59/79 83/61/83 80/60/80
f  84/62/84 29/16/29 28/18/28
f  84/62/84 28/18/28 85/63/85
f  85/63/85 28/18/28 83/61/83
f  85/63/85 83/61/83 82/59/82
f  86/64/86 87/65/87 27/17/27
f  86/64/86 27/17/27 26/16/26
f  87/65/87 88/58/88 89/61/89
f  87/65/87 89/61/89 27/17/27
f  90/58/90 91/60/91 92/60/92
f  90/58/90 92/60/92 93/58/93
f  93/58/93 92/60/92 89/61/89
f  93/58/93 89/61/89 88/58/88
f  38/13/38 94/66/94 95/67/95
f  38/13/38 95/67/95 96/68/96
f  94/66/94 97/69/97 98/69/98
f  94/66/94 98/69/98 95/67/95
f  96/68/96 95/67/95 99/70/99
f  96/68/96 99/70/99 100/71/100
f  95/67/95 98/69/98 101/72/101
f  95/67/95 101/72/101 99/70/99
f  23/13/23 102/73/102 103/67/103
f  23/13/23 103/67/103 104/66/104
f  102/73/102 105/71/105 106/74/106
f  102/73/102 106/74/106 103/67/103
f  104/66/104 103/67/103 98/69/98
f  104/66/104 98/69/98 97/69/97
f  103/67/103 106/74/106 101/72/101
f  103/67/103 101/72/101 98/69/98
f  107/75/107 108/76/108 109/77/109
f  107/75/107 109/77/109 110/78/110
f  108/76/108 111/79/111 112/80/112
f  108/76/108 112/80/112 109/77/109
f  110/78/110 109/77/109 106/74/106
f  110/78/110 106/74/106 105/71/105
f  109/77/109 112/80/112 101/72/101
f  109/77/109 101/72/101 106/74/106
f  113/81/113 114/78/114 115/82/115
f  113/81/113 115/82/115 116/83/116
f  114/78/114 100/71/100 99/70/99
f  114/78/114 99/70/99 115/82/115
f  116/83/116 115/82/115 112/80/112
f  116/83/116 112/80/112 111/79/111
f  115/82/115 99/70/99 101/72/101
f  115/82/115 101/72/101 112/80/112
f  117/84/117 118/85/118 119/86/119
f  117/84/117 119/86/119 120/87/120
f  118/85/118 121/88/121 122/88/122
f  118/85/118 122/88/122 119/86/119
f  120/87/120 119/86/119 123/89/123
f  120/87/120 123/89/123 124/90/124
f  119/86/119 122/88/122 125/91/125
f  119/86/119 125/91/125 123/89/123
f  19/9/19 126/92/126 127/93/127
f  19/9/19 127/93/127 128/94/128
f  126/92/126 129/95/129 130/96/130
f  126/92/126 130/96/130 127/93/127
f  128/94/128 127/93/127 122/88/122
f  128/94/128 122/88/122 121/88/121
f  127/93/127 130/96/130 125/91/125
f  127/93/127 125/91/125 122/88/122
f  17/7/17 1/1/1 130/96/130
f  17/7/17 130/96/130 129/95/129
f  1/1/1 3/3/3 125/91/125
f  1/1/1 125/91/125 130/96/130
f  131/97/131 132/98/132 133/99/133
f  131/97/131 133/99/133 134/100/134
f  132/98/132 124/90/124 123/89/123
f  132/98/132 123/89/123 133/99/133
f  134/100/134 133/99/133 3/3/3
f  134/100/134 3/3/3 2/101/2
f  133/99/133 123/89/123 125/91/125
f  133/99/133 125/91/125 3/3/3
f  91/60/91 81/61/81 80/60/80
f  91/60/91 80/60/80 92/60/92
f  30/19/30 135/25/135 136/24/136
f  30/19/30 136/24/136 137/23/137
f  135/25/135 138/28/138 139/28/139
f  135/25/135 139/28/139 136/24/136
f  137/23/137 136/24/136 140/102/140
f  137/23/137 140/102/140 141/103/141
f  136/24/136 139/28/139 142/104/142
f  136/24/136 142/104/142 140/102/140
f  143/105/143 144/106/144 145/107/145
f  143/105/143 145/107/145 146/108/146
f  144/106/144 147/34/147 148/35/148
f  144/106/144 148/35/148 145/107/145
f  146/108/146 145/107/145 139/28/139
f  146/108/146 139/28/139 138/28/138
f  145/107/145 148/35/148 142/104/142
f  145/107/145 142/104/142 139/28/139
f  149/30/149 150/109/150 151/110/151
f  149/30/149 151/110/151 152/111/152
f  150/109/150 141/112/141 140/102/140
f  150/109/150 140/102/140 151/110/151
f  152/111/152 151/110/151 148/35/148
f  152/111/152 148/35/148 147/34/147
f  151/110/151 140/102/140 142/104/142
f  151/110/151 142/104/142 148/35/148
f  22/12/22 153/113/153 154/114/154
f  22/12/22 154/114/154 155/41/155
f  153/113/153 156/46/156 157/46/157
f  153/113/153 157/46/157 154/114/154
f  155/41/155 154/114/154 158/45/158
f  155/41/155 158/45/158 159/44/159
f  154/114/154 157/46/157 160/115/160
f  154/114/154 160/115/160 158/45/158
f  35/11/35 161/116/161 162/117/162
f  35/11/35 162/117/162 163/118/163
f  161/116/161 164/52/164 165/119/165
f  161/116/161 165/119/165 162/117/162
f  163/118/163 162/117/162 157/46/157
f  163/118/163 157/46/157 156/46/156
f  162/117/162 165/119/165 160/115/160
f  162/117/162 160/115/160 157/46/157
f  166/120/166 167/121/167 168/122/168
f  166/120/166 168/122/168 169/123/169
f  167/121/167 159/44/159 158/45/158
f  167/121/167 158/45/158 168/122/168
f  169/123/169 168/122/168 165/119/165
f  169/123/169 165/119/165 164/124/164
f  168/122/168 158/45/158 160/115/160
f  168/122/168 160/115/160 165/119/165
f  31/20/31 170/87/170 171/125/171
f  31/20/31 171/125/171 172/126/172
f  170/87/170 173/127/173 174/128/174
f  170/87/170 174/128/174 171/125/171
f  172/126/172 171/125/171 175/88/175
f  172/126/172 175/88/175 176/88/176
f  171/125/171 174/128/174 177/91/177
f  171/125/171 177/91/177 175/88/175
f  178/129/178 179/130/179 180/99/180
f  178/129/178 180/99/180 181/131/181
f  179/130/179 5/5/5 7/3/7
f  179/130/179 7/3/7 180/99/180
f  181/131/181 180/99/180 174/128/174
f  181/131/181 174/128/174 173/90/173
f  180/99/180 7/3/7 177/91/177
f  180/99/180 177/91/177 174/128/174
f  9/6/9 182/95/182 183/132/183
f  9/6/9 183/132/183 6/1/6
f  6/1/6 183/132/183 177/91/177
f  6/1/6 177/91/177 7/3/7
f  34/9/34 184/94/184 185/93/185
f  34/9/34 185/93/185 186/133/186
f  184/94/184 176/88/176 175/88/175
f  184/94/184 175/88/175 185/93/185
f  186/133/186 185/93/185 183/132/183
f  186/133/186 183/132/183 182/95/182
f  185/93/185 175/88/175 177/91/177
f  185/93/185 177/91/177 183/132/183
f  41/14/41 187/134/187 188/135/188
f  41/14/41 188/135/188 189/136/189
f  187/134/187 190/71/190 191/74/191
f  187/134/187 191/74/191 188/135/188
f  189/136/189 188/135/188 192/69/192
f  189/136/189 192/69/192 193/69/193
f  188/135/188 191/74/191 194/72/194
f  188/135/188 194/72/194 192/69/192
f  195/75/195 196/76/196 197/77/197
f  195/75/195 197/77/197 198/78/198
f  196/76/196 199/79/199 200/80/200
f  196/76/196 200/80/200 197/77/197
f  198/78/198 197/77/197 191/74/191
f  198/78/198 191/74/191 190/71/190
f  197/77/197 200/80/200 194/72/194
f  197/77/197 194/72/194 191/74/191
f  201/81/201 202/137/202 203/77/203
f  201/81/201 203/77/203 204/83/204
f  202/137/202 205/71/205 206/70/206
f  202/137/202 206/70/206 203/77/203
f  204/83/204 203/77/203 200/80/200
f  204/83/204 200/80/200 199/79/199
f  203/77/203 206/70/206 194/72/194
f  203/77/203 194/72/194 200/80/200
f  24/14/24 207/136/207 208/135/208
f  24/14/24 208/135/208 209/134/209
f  207/136/207 193/69/193 192/69/192
f  207/136/207 192/69/192 208/135/208
f  209/134/209 208/135/208 206/70/206
f  209/134/209 206/70/206 205/71/205
f  208/135/208 192/69/192 194/72/194
f  208/135/208 194/72/194 206/70/206
f  40/21/40 210/138/210 211/139/211
f  40/21/40 211/139/211 212/140/212
f  210/138/210 213/46/213 214/46/214
f  210/138/210 214/46/214 211/139/211
f  212/140/212 211/139/211 215/45/215
f  212/140/212 215/45/215 216/44/216
f  211/139/211 214/46/214 217/115/217
f  211/139/211 217/115/217 215/45/215
f  21/11/21 218/141/218 219/142/219
f  21/11/21 219/142/219 220/118/220
f  218/141/218 221/52/221 222/119/222
f  218/141/218 222/119/222 219/142/219
f  220/118/220 219/142/219 214/46/214
f  220/118/220 214/46/214 213/46/213
f  219/142/219 222/119/222 217/115/217
f  219/142/219 217/115/217 214/46/214
f  223/120/223 224/121/224 225/122/225
f  223/120/223 225/122/225 226/123/226
f  224/121/224 216/44/216 215/45/215
f  224/121/224 215/45/215 225/122/225
f  226/123/226 225/122/225 222/119/222
f  226/123/226 222/119/222 221/124/221
f  225/122/225 215/45/215 217/115/217
f  225/122/225 217/115/217 222/119/222
f  227/20/227 228/87/228 229/125/229
f  227/20/227 229/125/229 230/85/230
f  228/87/228 231/127/231 232/128/232
f  228/87/228 232/128/232 229/125/229
f  230/85/230 229/125/229 233/88/233
f  230/85/230 233/88/233 234/88/234
f  229/125/229 232/128/232 235/91/235
f  229/125/229 235/91/235 233/88/233
f  236/129/236 237/130/237 238/99/238
f  236/129/236 238/99/238 239/131/239
f  237/130/237 10/5/10 12/3/12
f  237/130/237 12/3/12 238/99/238
f  239/131/239 238/99/238 232/128/232
f  239/131/239 232/128/232 231/90/231
f  238/99/238 12/3/12 235/91/235
f  238/99/238 235/91/235 232/128/232
f  13/6/13 240/95/240 241/132/241
f  13/6/13 241/132/241 11/1/11
f  11/1/11 241/132/241 235/91/235
f  11/1/11 235/91/235 12/3/12
f  20/10/20 242/94/242 243/143/243
f  20/10/20 243/143/243 244/144/244
f  242/94/242 234/88/234 233/88/233
f  242/94/242 233/88/233 243/143/243
f  244/144/244 243/143/243 241/132/241
f  244/144/244 241/132/241 240/95/240
f  243/143/243 233/88/233 235/91/235
f  243/143/243 235/91/235 241/132/241
f  245/19/245 246/145/246 247/24/247
f  245/19/245 247/24/247 248/146/248
f  246/145/246 249/28/249 250/28/250
f  246/145/246 250/28/250 247/24/247
f  248/146/248 247/24/247 251/102/251
f  248/146/248 251/102/251 252/103/252
f  247/24/247 250/28/250 253/104/253
f  247/24/247 253/104/253 251/102/251
f  254/105/254 255/106/255 256/147/256
f  254/105/254 256/147/256 257/108/257
f  255/106/255 258/34/258 259/35/259
f  255/106/255 259/35/259 256/147/256
f  257/108/257 256/147/256 250/28/250
f  257/108/257 250/28/250 249/28/249
f  256/147/256 259/35/259 253/104/253
f  256/147/256 253/104/253 250/28/250
f  260/30/260 261/109/261 262/110/262
f  260/30/260 262/110/262 263/111/263
f  261/109/261 252/112/252 251/102/251
f  261/109/261 251/102/251 262/110/262
f  263/111/263 262/110/262 259/35/259
f  263/111/263 259/35/259 258/34/258
f  262/110/262 251/102/251 253/104/253
f  262/110/262 253/104/253 259/35/259
f  264/59/264 265/60/265 266/61/266
f  264/59/264 266/61/266 267/59/267
f  267/59/267 266/61/266 268/61/268
f  267/59/267 268/61/268 269/58/269
f  270/148/270 271/59/271 272/61/272
f  270/148/270 272/61/272 273/61/273
f  271/59/271 274/59/274 275/61/275
f  271/59/271 275/61/275 272/61/272
f  276/62/276 277/16/277 278/149/278
f  276/62/276 278/149/278 279/63/279
f  279/63/279 278/149/278 275/61/275
f  279/63/279 275/61/275 274/59/274
f  280/64/280 281/65/281 282/150/282
f  280/64/280 282/150/282 283/151/283
f  281/65/281 269/58/269 268/61/268
f  281/65/281 268/61/268 282/150/282
f  25/15/25 284/140/284 285/152/285
f  25/15/25 285/152/285 286/153/286
f  284/140/284 287/44/287 288/45/288
f  284/140/284 288/45/288 285/152/285
f  286/153/286 285/152/285 289/46/289
f  286/153/286 289/46/289 290/46/290
f  285/152/285 288/45/288 291/47/291
f  285/152/285 291/47/291 289/46/289
f  292/48/292 293/49/293 294/50/294
f  292/48/292 294/50/294 295/51/295
f  293/49/293 296/52/296 297/53/297
f  293/49/293 297/53/297 294/50/294
f  295/51/295 294/50/294 288/45/288
f  295/51/295 288/45/288 287/44/287
f  294/50/294 297/53/297 291/47/291
f  294/50/294 291/47/291 288/45/288
f  36/11/36 298/154/298 299/155/299
f  36/11/36 299/155/299 300/156/300
f  298/154/298 290/46/290 289/46/289
f  298/154/298 289/46/289 299/155/299
f  300/156/300 299/155/299 297/53/297
f  300/156/300 297/53/297 296/57/296
f  299/155/299 289/46/289 291/47/291
f  299/155/299 291/47/291 297/53/297
f  32/20/32 301/157/301 302/86/302
f  32/20/32 302/86/302 303/158/303
f  301/157/301 304/88/304 305/88/305
f  301/157/301 305/88/305 302/86/302
f  303/158/303 302/86/302 306/89/306
f  303/158/303 306/89/306 307/90/307
f  302/86/302 305/88/305 308/91/308
f  302/86/302 308/91/308 306/89/306
f  37/9/37 309/144/309 310/159/310
f  37/9/37 310/159/310 311/94/311
f  309/144/309 312/95/312 313/96/313
f  309/144/309 313/96/313 310/159/310
f  311/94/311 310/159/310 305/88/305
f  311/94/311 305/88/305 304/88/304
f  310/159/310 313/96/313 308/91/308
f  310/159/310 308/91/308 305/88/305
f  16/7/16 15/1/15 313/96/313
f  16/7/16 313/96/313 312/95/312
f  15/1/15 314/3/314 308/91/308
f  15/1/15 308/91/308 313/96/313
f  315/97/315 316/98/316 317/99/317
f  315/97/315 317/99/317 318/100/318
f  316/98/316 307/90/307 306/89/306
f  316/98/316 306/89/306 317/99/317
f  318/100/318 317/99/317 314/3/314
f  318/100/318 314/3/314 319/101/319
f  317/99/317 306/89/306 308/91/308
f  317/99/317 308/91/308 314/3/314
f  33/19/33 320/23/320 321/24/321
f  33/19/33 321/24/321 322/145/322
f  320/23/320 323/26/323 324/27/324
f  320/23/320 324/27/324 321/24/321
f  322/145/322 321/24/321 325/28/325
f  322/145/322 325/28/325 326/28/326
f  321/24/321 324/27/324 327/29/327
f  321/24/321 327/29/327 325/28/325
f  328/30/328 329/31/329 330/32/330
f  328/30/328 330/32/330 331/33/331
f  329/31/329 332/34/332 333/35/333
f  329/31/329 333/35/333 330/32/330
f  331/33/331 330/32/330 324/27/324
f  331/33/331 324/27/324 323/36/323
f  330/32/330 333/35/333 327/29/327
f  330/32/330 327/29/327 324/27/324
f  334/160/334 335/38/335 336/39/336
f  334/160/334 336/39/336 337/106/337
f  335/38/335 326/28/326 325/28/325
f  335/38/335 325/28/325 336/39/336
f  337/106/337 336/39/336 333/35/333
f  337/106/337 333/35/333 332/34/332
f  336/39/336 325/28/325 327/29/327
f  336/39/336 327/29/327 333/35/333
f  113/81/113 69/48/69 72/51/72
f  113/81/113 72/51/72 114/78/114
f  114/78/114 72/51/72 64/44/64
f  114/78/114 64/44/64 100/71/100
f  100/71/100 64/44/64 61/41/61
f  100/71/100 61/41/61 96/68/96
f  96/68/96 61/41/61 39/21/39
f  96/68/96 39/21/39 38/13/38
f  131/97/131 51/30/51 54/33/54
f  131/97/131 54/33/54 132/98/132
f  132/98/132 54/33/54 46/161/46
f  132/98/132 46/161/46 124/90/124
f  124/90/124 46/161/46 43/23/43
f  124/90/124 43/23/43 120/87/120
f  120/87/120 43/23/43 42/22/42
f  120/87/120 42/22/42 117/84/117
f  51/30/51 84/62/84 85/63/85
f  51/30/51 85/63/85 52/31/52
f  52/31/52 85/63/85 82/59/82
f  52/31/52 82/59/82 55/34/55
f  55/34/55 82/59/82 79/59/79
f  55/34/55 79/59/79 60/40/60
f  60/40/60 79/59/79 78/58/78
f  60/40/60 78/58/78 57/37/57
f  273/61/273 272/61/272 266/61/266
f  273/61/273 266/61/266 265/60/265
f  69/48/69 4/4/4 17/7/17
f  69/48/69 17/7/17 70/49/70
f  70/49/70 17/7/17 129/95/129
f  70/49/70 129/95/129 73/52/73
f  73/52/73 129/95/129 126/92/126
f  73/52/73 126/92/126 77/56/77
f  77/56/77 126/92/126 19/9/19
f  77/56/77 19/9/19 18/8/18
f  282/150/282 268/61/268 275/61/275
f  282/150/282 275/61/275 278/149/278
f  23/13/23 22/12/22 155/41/155
f  23/13/23 155/41/155 102/73/102
f  102/73/102 155/41/155 159/44/159
f  102/73/102 159/44/159 105/71/105
f  105/71/105 159/44/159 167/121/167
f  105/71/105 167/121/167 110/78/110
f  110/78/110 167/121/167 166/120/166
f  110/78/110 166/120/166 107/75/107
f  31/20/31 30/19/30 137/23/137
f  31/20/31 137/23/137 170/87/170
f  170/87/170 137/23/137 141/162/141
f  170/87/170 141/162/141 173/127/173
f  173/127/173 141/162/141 150/109/150
f  173/127/173 150/109/150 181/131/181
f  181/131/181 150/109/150 149/30/149
f  181/131/181 149/30/149 178/129/178
f  143/105/143 90/58/90 93/58/93
f  143/105/143 93/58/93 144/106/144
f  144/106/144 93/58/93 88/58/88
f  144/106/144 88/58/88 147/34/147
f  147/34/147 88/58/88 87/65/87
f  147/34/147 87/65/87 152/111/152
f  152/111/152 87/65/87 86/64/86
f  152/111/152 86/64/86 149/30/149
f  35/11/35 34/9/34 186/133/186
f  35/11/35 186/133/186 161/116/161
f  161/116/161 186/133/186 182/95/182
f  161/116/161 182/95/182 164/52/164
f  164/52/164 182/95/182 9/6/9
f  164/52/164 9/6/9 169/123/169
f  169/123/169 9/6/9 8/4/8
f  169/123/169 8/4/8 166/120/166
f  41/14/41 40/21/40 212/140/212
f  41/14/41 212/140/212 187/134/187
f  187/134/187 212/140/212 216/44/216
f  187/134/187 216/44/216 190/71/190
f  190/71/190 216/44/216 224/121/224
f  190/71/190 224/121/224 198/78/198
f  198/78/198 224/121/224 223/120/223
f  198/78/198 223/120/223 195/75/195
f  227/20/227 245/19/245 248/146/248
f  227/20/227 248/146/248 228/87/228
f  228/87/228 248/146/248 252/162/252
f  228/87/228 252/162/252 231/127/231
f  231/127/231 252/162/252 261/109/261
f  231/127/231 261/109/261 239/131/239
f  239/131/239 261/109/261 260/30/260
f  239/131/239 260/30/260 236/129/236
f  254/105/254 264/59/264 267/59/267
f  254/105/254 267/59/267 255/106/255
f  255/106/255 267/59/267 269/58/269
f  255/106/255 269/58/269 258/34/258
f  258/34/258 269/58/269 281/65/281
f  258/34/258 281/65/281 263/111/263
f  263/111/263 281/65/281 280/64/280
f  263/111/263 280/64/280 260/30/260
f  21/11/21 20/10/20 244/144/244
f  21/11/21 244/144/244 218/141/218
f  218/141/218 244/144/244 240/95/240
f  218/141/218 240/95/240 221/52/221
f  221/52/221 240/95/240 13/6/13
f  221/52/221 13/6/13 226/123/226
f  92/60/92 80/60/80 83/61/83
f  92/60/92 83/61/83 89/61/89
f  201/81/201 292/48/292 295/51/295
f  201/81/201 295/51/295 202/137/202
f  202/137/202 295/51/295 287/44/287
f  202/137/202 287/44/287 205/71/205
f  205/71/205 287/44/287 284/140/284
f  205/71/205 284/140/284 209/134/209
f  209/134/209 284/140/284 25/15/25
f  209/134/209 25/15/25 24/14/24
f  315/97/315 328/30/328 331/33/331
f  315/97/315 331/33/331 316/98/316
f  316/98/316 331/33/331 323/161/323
f  316/98/316 323/161/323 307/90/307
f  307/90/307 323/161/323 320/23/320
f  307/90/307 320/23/320 303/158/303
f  303/158/303 320/23/320 33/19/33
f  303/158/303 33/19/33 32/20/32
f  328/30/328 276/62/276 279/63/279
f  328/30/328 279/63/279 329/31/329
f  329/31/329 279/63/279 274/59/274
f  329/31/329 274/59/274 332/34/332
f  332/34/332 274/59/274 271/59/271
f  332/34/332 271/59/271 337/106/337
f  337/106/337 271/59/271 270/148/270
f  337/106/337 270/148/270 334/160/334
f  292/48/292 14/4/14 16/7/16
f  292/48/292 16/7/16 293/49/293
f  293/49/293 16/7/16 312/95/312
f  293/49/293 312/95/312 296/52/296
f  296/52/296 312/95/312 309/144/309
f  296/52/296 309/144/309 300/156/300
f  300/156/300 309/144/309 37/9/37
f  300/156/300 37/9/37 36/11/36
f  27/17/27 89/61/89 83/61/83
f  27/17/27 83/61/83 28/18/28
f  38/13/38 41/14/41 189/136/189
f  38/13/38 189/136/189 94/66/94
f  94/66/94 189/136/189 193/69/193
f  94/66/94 193/69/193 97/69/97
f  97/69/97 193/69/193 207/136/207
f  97/69/97 207/136/207 104/66/104
f  104/66/104 207/136/207 24/14/24
f  104/66/104 24/14/24 23/13/23
f  36/11/36 35/11/35 163/118/163
f  36/11/36 163/118/163 298/154/298
f  298/154/298 163/118/163 156/46/156
f  298/154/298 156/46/156 290/46/290
f  290/46/290 156/46/156 153/113/153
f  290/46/290 153/113/153 286/153/286
f  286/153/286 153/113/153 22/12/22
f  286/153/286 22/12/22 25/15/25
f  57/37/57 254/105/254 257/108/257
f  57/37/57 257/108/257 58/38/58
f  58/38/58 257/108/257 249/28/249
f  58/38/58 249/28/249 49/28/49
f  49/28/49 249/28/249 246/145/246
f  49/28/49 246/145/246 45/25/45
f  45/25/45 246/145/246 245/19/245
f  45/25/45 245/19/245 42/22/42
f  20/10/20 19/9/19 128/94/128
f  20/10/20 128/94/128 242/94/242
f  242/94/242 128/94/128 121/88/121
f  242/94/242 121/88/121 234/88/234
f  234/88/234 121/88/121 118/85/118
f  234/88/234 118/85/118 230/85/230
f  230/85/230 118/85/118 117/84/117
f  230/85/230 117/84/117 227/20/227
f  32/20/32 31/20/31 172/126/172
f  32/20/32 172/126/172 301/157/301
f  301/157/301 172/126/172 176/88/176
f  301/157/301 176/88/176 304/88/304
f  304/88/304 176/88/176 184/94/184
f  304/88/304 184/94/184 311/94/311
f  311/94/311 184/94/184 34/9/34
f  311/94/311 34/9/34 37/9/37
f  334/160/334 143/105/143 146/108/146
f  334/160/334 146/108/146 335/38/335
f  335/38/335 146/108/146 138/28/138
f  335/38/335 138/28/138 326/28/326
f  326/28/326 138/28/138 135/25/135
f  326/28/326 135/25/135 322/145/322
f  322/145/322 135/25/135 30/19/30
f  322/145/322 30/19/30 33/19/33
f  40/21/40 39/21/39 63/43/63
f  40/21/40 63/43/63 210/138/210
f  210/138/210 63/43/63 67/46/67
f  210/138/210 67/46/67 213/46/213
f  213/46/213 67/46/67 75/54/75
f  213/46/213 75/54/75 220/118/220
f  220/118/220 75/54/75 18/8/18
f  220/118/220 18/8/18 21/11/21
f  117/84/117 42/22/42 245/19/245
f  117/84/117 245/19/245 227/20/227
f  15/1/15 14/4/14 319/2/319
f  15/1/15 319/2/319 314/3/314
f  272/61/272 275/61/275 268/61/268
f  272/61/272 268/61/268 266/61/266
f  283/151/283 282/150/282 278/149/278
f  283/151/283 278/149/278 277/16/277
f  113/81/113 4/4/4 69/48/69
f  4/4/4 113/81/113 8/4/8
f  8/4/8 107/75/107 166/120/166
f  107/75/107 8/4/8 113/81/113
f  107/75/107 113/81/113 116/83/116
f  107/75/107 116/83/116 108/76/108
f  108/76/108 116/83/116 111/79/111
f  131/97/131 84/62/84 51/30/51
f  84/62/84 131/97/131 29/16/29
f  29/16/29 131/97/131 26/16/26
f  26/16/26 131/97/131 86/64/86
f  86/64/86 131/97/131 149/30/149
f  149/30/149 131/97/131 178/129/178
f  178/129/178 131/97/131 179/130/179
f  179/130/179 131/97/131 134/100/134
f  179/130/179 134/100/134 5/5/5
f  5/5/5 134/100/134 2/2/2
f  5/5/5 2/2/2 8/4/8
f  8/4/8 2/2/2 4/4/4
f  201/81/201 14/4/14 292/48/292
f  319/2/319 338/163/338 318/100/318
f  338/163/338 319/2/319 195/75/195
f  195/75/195 319/2/319 14/4/14
f  195/75/195 14/4/14 201/81/201
f  195/75/195 201/81/201 204/83/204
f  195/75/195 204/83/204 196/76/196
f  196/76/196 204/83/204 199/79/199
f  315/97/315 276/62/276 328/30/328
f  276/62/276 315/97/315 277/16/277
f  277/16/277 315/97/315 283/151/283
f  283/151/283 315/97/315 236/129/236
f  236/129/236 315/97/315 237/130/237
f  237/130/237 315/97/315 318/100/318
f  237/130/237 318/100/318 338/163/338
f  237/130/237 338/163/338 10/5/10
f  283/151/283 260/30/260 280/64/280
f  260/30/260 283/151/283 236/129/236
f  78/58/78 254/105/254 57/37/57
f  254/105/254 78/58/78 264/59/264
f  264/59/264 78/58/78 81/61/81
f  264/59/264 81/61/81 265/60/265
f  265/60/265 81/61/81 91/60/91
f  265/60/265 91/60/91 273/61/273
f  273/61/273 91/60/91 270/148/270
f  270/148/270 91/60/91 90/58/90
f  270/148/270 90/58/90 143/105/143
f  270/148/270 143/105/143 334/160/334
f  195/75/195 10/5/10 338/163/338
f  10/5/10 195/75/195 13/6/13
f  13/6/13 223/120/223 226/123/226
f  223/120/223 13/6/13 195/75/195

